<?xml version="1.0" encoding="UTF-8" standalone="no"?>
<!DOCTYPE svg PUBLIC "-//W3C//DTD SVG 1.1//EN"
 "http://www.w3.org/Graphics/SVG/1.1/DTD/svg11.dtd">
<!-- Generated by graphviz version 2.38.0 (20140413.2041)
 -->
<!-- Title: controllers_diagram Pages: 1 -->
<svg width="1268pt" height="1011pt"
 viewBox="0.00 0.00 1268.03 1011.07" xmlns="http://www.w3.org/2000/svg" xmlns:xlink="http://www.w3.org/1999/xlink">
<g id="graph0" class="graph" transform="scale(1 1) rotate(0) translate(561.581 573.5)">
<title>controllers_diagram</title>
<polygon fill="white" stroke="none" points="-561.581,437.566 -561.581,-573.5 706.45,-573.5 706.45,437.566 -561.581,437.566"/>
<!-- _diagram_info -->
<g id="node1" class="node"><title>_diagram_info</title>
<text text-anchor="start" x="503.55" y="-555.1" font-family="Times,serif" font-size="13.00">Controllers diagram</text>
<text text-anchor="start" x="503.55" y="-542.1" font-family="Times,serif" font-size="13.00">Date: Apr 10 2015 &#45; 09:30</text>
<text text-anchor="start" x="503.55" y="-529.1" font-family="Times,serif" font-size="13.00">Migration version: 20150311010725</text>
<text text-anchor="start" x="503.55" y="-516.1" font-family="Times,serif" font-size="13.00">Generated by RailRoady 1.3.0</text>
<text text-anchor="start" x="503.55" y="-503.1" font-family="Times,serif" font-size="13.00">http://railroady.prestonlee.com</text>
</g>
<!-- ApplicationController -->
<g id="node2" class="node"><title>ApplicationController</title>
<path fill="none" stroke="black" d="M-241.371,45.2926C-241.371,45.2926 -67.4398,45.2926 -67.4398,45.2926 -61.4398,45.2926 -55.4398,39.2926 -55.4398,33.2926 -55.4398,33.2926 -55.4398,-32.7074 -55.4398,-32.7074 -55.4398,-38.7074 -61.4398,-44.7074 -67.4398,-44.7074 -67.4398,-44.7074 -241.371,-44.7074 -241.371,-44.7074 -247.371,-44.7074 -253.371,-38.7074 -253.371,-32.7074 -253.371,-32.7074 -253.371,33.2926 -253.371,33.2926 -253.371,39.2926 -247.371,45.2926 -241.371,45.2926"/>
<text text-anchor="middle" x="-154.406" y="-29.5074" font-family="Times,serif" font-size="14.00">ApplicationController</text>
<polyline fill="none" stroke="black" points="-253.371,-22.7074 -55.4398,-22.7074 "/>
<polyline fill="none" stroke="black" points="-253.371,1.29258 -55.4398,1.29258 "/>
<text text-anchor="start" x="-245.371" y="16.4926" font-family="Times,serif" font-size="14.00">configure_permitted_parameters</text>
<polyline fill="none" stroke="black" points="-253.371,23.2926 -55.4398,23.2926 "/>
<text text-anchor="start" x="-245.371" y="38.4926" font-family="Times,serif" font-size="14.00">_layout</text>
</g>
<!-- HomeController -->
<g id="node4" class="node"><title>HomeController</title>
<path fill="none" stroke="black" d="M-190.045,-273.137C-190.045,-273.137 -103.19,-273.137 -103.19,-273.137 -97.1896,-273.137 -91.1896,-279.137 -91.1896,-285.137 -91.1896,-285.137 -91.1896,-407.137 -91.1896,-407.137 -91.1896,-413.137 -97.1896,-419.137 -103.19,-419.137 -103.19,-419.137 -190.045,-419.137 -190.045,-419.137 -196.045,-419.137 -202.045,-413.137 -202.045,-407.137 -202.045,-407.137 -202.045,-285.137 -202.045,-285.137 -202.045,-279.137 -196.045,-273.137 -190.045,-273.137"/>
<text text-anchor="middle" x="-146.617" y="-403.937" font-family="Times,serif" font-size="14.00">HomeController</text>
<polyline fill="none" stroke="black" points="-202.045,-397.137 -91.1896,-397.137 "/>
<text text-anchor="start" x="-194.045" y="-381.937" font-family="Times,serif" font-size="14.00">create</text>
<text text-anchor="start" x="-194.045" y="-367.937" font-family="Times,serif" font-size="14.00">destroy</text>
<text text-anchor="start" x="-194.045" y="-353.937" font-family="Times,serif" font-size="14.00">index</text>
<text text-anchor="start" x="-194.045" y="-339.937" font-family="Times,serif" font-size="14.00">send_email</text>
<polyline fill="none" stroke="black" points="-202.045,-333.137 -91.1896,-333.137 "/>
<polyline fill="none" stroke="black" points="-202.045,-309.137 -91.1896,-309.137 "/>
<text text-anchor="start" x="-194.045" y="-293.937" font-family="Times,serif" font-size="14.00">_layout</text>
<text text-anchor="start" x="-194.045" y="-279.937" font-family="Times,serif" font-size="14.00">message_params</text>
</g>
<!-- ApplicationController&#45;&gt;HomeController -->
<g id="edge1" class="edge"><title>ApplicationController&#45;&gt;HomeController</title>
<path fill="none" stroke="black" d="M-153.387,-44.997C-152.084,-102.953 -149.811,-204.08 -148.261,-273.012"/>
</g>
<!-- MessagesController -->
<g id="node5" class="node"><title>MessagesController</title>
<path fill="none" stroke="black" d="M-502.647,59.7049C-502.647,59.7049 -398.667,59.7049 -398.667,59.7049 -392.667,59.7049 -386.667,53.7049 -386.667,47.7049 -386.667,47.7049 -386.667,-32.2951 -386.667,-32.2951 -386.667,-38.2951 -392.667,-44.2951 -398.667,-44.2951 -398.667,-44.2951 -502.647,-44.2951 -502.647,-44.2951 -508.647,-44.2951 -514.647,-38.2951 -514.647,-32.2951 -514.647,-32.2951 -514.647,47.7049 -514.647,47.7049 -514.647,53.7049 -508.647,59.7049 -502.647,59.7049"/>
<text text-anchor="middle" x="-450.657" y="-29.0951" font-family="Times,serif" font-size="14.00">MessagesController</text>
<polyline fill="none" stroke="black" points="-514.647,-22.2951 -386.667,-22.2951 "/>
<text text-anchor="start" x="-506.647" y="-7.09514" font-family="Times,serif" font-size="14.00">create</text>
<polyline fill="none" stroke="black" points="-514.647,-0.29514 -386.667,-0.29514 "/>
<polyline fill="none" stroke="black" points="-514.647,23.7049 -386.667,23.7049 "/>
<text text-anchor="start" x="-506.647" y="38.9049" font-family="Times,serif" font-size="14.00">_layout</text>
<text text-anchor="start" x="-506.647" y="52.9049" font-family="Times,serif" font-size="14.00">message_params</text>
</g>
<!-- ApplicationController&#45;&gt;MessagesController -->
<g id="edge2" class="edge"><title>ApplicationController&#45;&gt;MessagesController</title>
<path fill="none" stroke="black" d="M-253.465,2.77107C-297.367,3.86951 -347.752,5.13016 -386.602,6.10219"/>
</g>
<!-- WelcomeController -->
<g id="node6" class="node"><title>WelcomeController</title>
<path fill="none" stroke="black" d="M-492.931,-288.286C-492.931,-288.286 -390.866,-288.286 -390.866,-288.286 -384.866,-288.286 -378.866,-294.286 -378.866,-300.286 -378.866,-300.286 -378.866,-366.286 -378.866,-366.286 -378.866,-372.286 -384.866,-378.286 -390.866,-378.286 -390.866,-378.286 -492.931,-378.286 -492.931,-378.286 -498.931,-378.286 -504.931,-372.286 -504.931,-366.286 -504.931,-366.286 -504.931,-300.286 -504.931,-300.286 -504.931,-294.286 -498.931,-288.286 -492.931,-288.286"/>
<text text-anchor="middle" x="-441.899" y="-363.086" font-family="Times,serif" font-size="14.00">WelcomeController</text>
<polyline fill="none" stroke="black" points="-504.931,-356.286 -378.866,-356.286 "/>
<text text-anchor="start" x="-496.931" y="-341.086" font-family="Times,serif" font-size="14.00">index</text>
<polyline fill="none" stroke="black" points="-504.931,-334.286 -378.866,-334.286 "/>
<polyline fill="none" stroke="black" points="-504.931,-310.286 -378.866,-310.286 "/>
<text text-anchor="start" x="-496.931" y="-295.086" font-family="Times,serif" font-size="14.00">_layout</text>
</g>
<!-- ApplicationController&#45;&gt;WelcomeController -->
<g id="edge3" class="edge"><title>ApplicationController&#45;&gt;WelcomeController</title>
<path fill="none" stroke="black" d="M-193.477,-45.0425C-248.44,-108.816 -347.996,-224.33 -402.912,-288.05"/>
</g>
<!-- DeviseController -->
<g id="node13" class="node"><title>DeviseController</title>
<path fill="none" stroke="black" d="M40.1748,199.32C40.1748,199.32 184.589,199.32 184.589,199.32 190.589,199.32 196.589,193.32 196.589,187.32 196.589,187.32 196.589,-114.68 196.589,-114.68 196.589,-120.68 190.589,-126.68 184.589,-126.68 184.589,-126.68 40.1748,-126.68 40.1748,-126.68 34.1748,-126.68 28.1748,-120.68 28.1748,-114.68 28.1748,-114.68 28.1748,187.32 28.1748,187.32 28.1748,193.32 34.1748,199.32 40.1748,199.32"/>
<text text-anchor="middle" x="112.382" y="-111.48" font-family="Times,serif" font-size="14.00">DeviseController</text>
<polyline fill="none" stroke="black" points="28.1748,-104.68 196.589,-104.68 "/>
<text text-anchor="start" x="36.1748" y="-89.4805" font-family="Times,serif" font-size="14.00">_prefixes</text>
<text text-anchor="start" x="36.1748" y="-75.4805" font-family="Times,serif" font-size="14.00">devise_mapping</text>
<text text-anchor="start" x="36.1748" y="-61.4805" font-family="Times,serif" font-size="14.00">resource</text>
<text text-anchor="start" x="36.1748" y="-47.4805" font-family="Times,serif" font-size="14.00">resource_class</text>
<text text-anchor="start" x="36.1748" y="-33.4805" font-family="Times,serif" font-size="14.00">resource_name</text>
<text text-anchor="start" x="36.1748" y="-19.4805" font-family="Times,serif" font-size="14.00">scope_name</text>
<text text-anchor="start" x="36.1748" y="-5.48048" font-family="Times,serif" font-size="14.00">signed_in_resource</text>
<polyline fill="none" stroke="black" points="28.1748,1.31952 196.589,1.31952 "/>
<text text-anchor="start" x="36.1748" y="16.5195" font-family="Times,serif" font-size="14.00">assert_is_devise_resource!</text>
<text text-anchor="start" x="36.1748" y="30.5195" font-family="Times,serif" font-size="14.00">clean_up_passwords</text>
<text text-anchor="start" x="36.1748" y="44.5195" font-family="Times,serif" font-size="14.00">devise_i18n_options</text>
<text text-anchor="start" x="36.1748" y="58.5195" font-family="Times,serif" font-size="14.00">find_message</text>
<text text-anchor="start" x="36.1748" y="72.5195" font-family="Times,serif" font-size="14.00">navigational_formats</text>
<text text-anchor="start" x="36.1748" y="86.5195" font-family="Times,serif" font-size="14.00">require_no_authentication</text>
<text text-anchor="start" x="36.1748" y="100.52" font-family="Times,serif" font-size="14.00">resource=</text>
<text text-anchor="start" x="36.1748" y="114.52" font-family="Times,serif" font-size="14.00">resource_params</text>
<text text-anchor="start" x="36.1748" y="128.52" font-family="Times,serif" font-size="14.00">respond_with_navigational</text>
<text text-anchor="start" x="36.1748" y="142.52" font-family="Times,serif" font-size="14.00">set_flash_message</text>
<text text-anchor="start" x="36.1748" y="156.52" font-family="Times,serif" font-size="14.00">successfully_sent?</text>
<text text-anchor="start" x="36.1748" y="170.52" font-family="Times,serif" font-size="14.00">unknown_action!</text>
<polyline fill="none" stroke="black" points="28.1748,177.32 196.589,177.32 "/>
<text text-anchor="start" x="36.1748" y="192.52" font-family="Times,serif" font-size="14.00">_layout</text>
</g>
<!-- ApplicationController&#45;&gt;DeviseController -->
<g id="edge10" class="edge"><title>ApplicationController&#45;&gt;DeviseController</title>
<path fill="none" stroke="black" d="M-55.0638,13.7077C-27.8047,17.3887 1.48757,21.3444 27.8312,24.9018"/>
</g>
<!-- FayeController -->
<g id="node3" class="node"><title>FayeController</title>
<path fill="none" stroke="black" d="M-422.379,-125C-422.379,-125 -345.621,-125 -345.621,-125 -339.621,-125 -333.621,-131 -333.621,-137 -333.621,-137 -333.621,-207 -333.621,-207 -333.621,-213 -339.621,-219 -345.621,-219 -345.621,-219 -422.379,-219 -422.379,-219 -428.379,-219 -434.379,-213 -434.379,-207 -434.379,-207 -434.379,-137 -434.379,-137 -434.379,-131 -428.379,-125 -422.379,-125"/>
<text text-anchor="middle" x="-384" y="-203.8" font-family="Times,serif" font-size="14.00">FayeController</text>
<polyline fill="none" stroke="black" points="-434.379,-197 -333.621,-197 "/>
<polyline fill="none" stroke="black" points="-434.379,-173 -333.621,-173 "/>
<polyline fill="none" stroke="black" points="-434.379,-149 -333.621,-149 "/>
</g>
<!-- Devise::ConfirmationsController -->
<g id="node7" class="node"><title>Devise::ConfirmationsController</title>
<path fill="none" stroke="black" d="M255.001,-277.661C255.001,-277.661 539.374,-277.661 539.374,-277.661 545.374,-277.661 551.374,-283.661 551.374,-289.661 551.374,-289.661 551.374,-395.661 551.374,-395.661 551.374,-401.661 545.374,-407.661 539.374,-407.661 539.374,-407.661 255.001,-407.661 255.001,-407.661 249.001,-407.661 243.001,-401.661 243.001,-395.661 243.001,-395.661 243.001,-289.661 243.001,-289.661 243.001,-283.661 249.001,-277.661 255.001,-277.661"/>
<text text-anchor="middle" x="397.187" y="-392.461" font-family="Times,serif" font-size="14.00">Devise::ConfirmationsController</text>
<polyline fill="none" stroke="black" points="243.001,-385.661 551.374,-385.661 "/>
<text text-anchor="start" x="251.001" y="-370.461" font-family="Times,serif" font-size="14.00">create</text>
<text text-anchor="start" x="251.001" y="-356.461" font-family="Times,serif" font-size="14.00">new</text>
<text text-anchor="start" x="251.001" y="-342.461" font-family="Times,serif" font-size="14.00">show</text>
<polyline fill="none" stroke="black" points="243.001,-335.661 551.374,-335.661 "/>
<text text-anchor="start" x="251.001" y="-320.461" font-family="Times,serif" font-size="14.00">after_confirmation_path_for</text>
<text text-anchor="start" x="251.001" y="-306.461" font-family="Times,serif" font-size="14.00">after_resending_confirmation_instructions_path_for</text>
<polyline fill="none" stroke="black" points="243.001,-299.661 551.374,-299.661 "/>
<text text-anchor="start" x="251.001" y="-284.461" font-family="Times,serif" font-size="14.00">_layout</text>
</g>
<!-- Devise::OmniauthCallbacksController -->
<g id="node8" class="node"><title>Devise::OmniauthCallbacksController</title>
<path fill="none" stroke="black" d="M4.08893,-249.767C4.08893,-249.767 211.489,-249.767 211.489,-249.767 217.489,-249.767 223.489,-255.767 223.489,-261.767 223.489,-261.767 223.489,-367.767 223.489,-367.767 223.489,-373.767 217.489,-379.767 211.489,-379.767 211.489,-379.767 4.08893,-379.767 4.08893,-379.767 -1.91107,-379.767 -7.91107,-373.767 -7.91107,-367.767 -7.91107,-367.767 -7.91107,-261.767 -7.91107,-261.767 -7.91107,-255.767 -1.91107,-249.767 4.08893,-249.767"/>
<text text-anchor="middle" x="107.789" y="-364.567" font-family="Times,serif" font-size="14.00">Devise::OmniauthCallbacksController</text>
<polyline fill="none" stroke="black" points="-7.91107,-357.767 223.489,-357.767 "/>
<text text-anchor="start" x="0.0889255" y="-342.567" font-family="Times,serif" font-size="14.00">failure</text>
<text text-anchor="start" x="0.0889255" y="-328.567" font-family="Times,serif" font-size="14.00">passthru</text>
<polyline fill="none" stroke="black" points="-7.91107,-321.767 223.489,-321.767 "/>
<text text-anchor="start" x="0.0889255" y="-306.567" font-family="Times,serif" font-size="14.00">after_omniauth_failure_path_for</text>
<text text-anchor="start" x="0.0889255" y="-292.567" font-family="Times,serif" font-size="14.00">failed_strategy</text>
<text text-anchor="start" x="0.0889255" y="-278.567" font-family="Times,serif" font-size="14.00">failure_message</text>
<polyline fill="none" stroke="black" points="-7.91107,-271.767 223.489,-271.767 "/>
<text text-anchor="start" x="0.0889255" y="-256.567" font-family="Times,serif" font-size="14.00">_layout</text>
</g>
<!-- Devise::PasswordsController -->
<g id="node9" class="node"><title>Devise::PasswordsController</title>
<path fill="none" stroke="black" d="M-545.581,420.418C-545.581,420.418 -257.318,420.418 -257.318,420.418 -251.318,420.418 -245.318,414.418 -245.318,408.418 -245.318,408.418 -245.318,260.418 -245.318,260.418 -245.318,254.418 -251.318,248.418 -257.318,248.418 -257.318,248.418 -545.581,248.418 -545.581,248.418 -551.581,248.418 -557.581,254.418 -557.581,260.418 -557.581,260.418 -557.581,408.418 -557.581,408.418 -557.581,414.418 -551.581,420.418 -545.581,420.418"/>
<text text-anchor="middle" x="-401.45" y="263.618" font-family="Times,serif" font-size="14.00">Devise::PasswordsController</text>
<polyline fill="none" stroke="black" points="-557.581,270.418 -245.318,270.418 "/>
<text text-anchor="start" x="-549.581" y="285.618" font-family="Times,serif" font-size="14.00">create</text>
<text text-anchor="start" x="-549.581" y="299.618" font-family="Times,serif" font-size="14.00">edit</text>
<text text-anchor="start" x="-549.581" y="313.618" font-family="Times,serif" font-size="14.00">new</text>
<text text-anchor="start" x="-549.581" y="327.618" font-family="Times,serif" font-size="14.00">update</text>
<polyline fill="none" stroke="black" points="-557.581,334.418 -245.318,334.418 "/>
<text text-anchor="start" x="-549.581" y="349.618" font-family="Times,serif" font-size="14.00">after_resetting_password_path_for</text>
<text text-anchor="start" x="-549.581" y="363.618" font-family="Times,serif" font-size="14.00">after_sending_reset_password_instructions_path_for</text>
<text text-anchor="start" x="-549.581" y="377.618" font-family="Times,serif" font-size="14.00">assert_reset_token_passed</text>
<text text-anchor="start" x="-549.581" y="391.618" font-family="Times,serif" font-size="14.00">unlockable?</text>
<polyline fill="none" stroke="black" points="-557.581,398.418 -245.318,398.418 "/>
<text text-anchor="start" x="-549.581" y="413.618" font-family="Times,serif" font-size="14.00">_layout</text>
</g>
<!-- Devise::RegistrationsController -->
<g id="node10" class="node"><title>Devise::RegistrationsController</title>
<path fill="none" stroke="black" d="M317.749,138.832C317.749,138.832 492.467,138.832 492.467,138.832 498.467,138.832 504.467,132.832 504.467,126.832 504.467,126.832 504.467,-133.168 504.467,-133.168 504.467,-139.168 498.467,-145.168 492.467,-145.168 492.467,-145.168 317.749,-145.168 317.749,-145.168 311.749,-145.168 305.749,-139.168 305.749,-133.168 305.749,-133.168 305.749,126.832 305.749,126.832 305.749,132.832 311.749,138.832 317.749,138.832"/>
<text text-anchor="middle" x="405.108" y="-129.968" font-family="Times,serif" font-size="14.00">Devise::RegistrationsController</text>
<polyline fill="none" stroke="black" points="305.749,-123.168 504.467,-123.168 "/>
<text text-anchor="start" x="313.749" y="-107.968" font-family="Times,serif" font-size="14.00">cancel</text>
<text text-anchor="start" x="313.749" y="-93.9681" font-family="Times,serif" font-size="14.00">create</text>
<text text-anchor="start" x="313.749" y="-79.9681" font-family="Times,serif" font-size="14.00">destroy</text>
<text text-anchor="start" x="313.749" y="-65.9681" font-family="Times,serif" font-size="14.00">edit</text>
<text text-anchor="start" x="313.749" y="-51.9681" font-family="Times,serif" font-size="14.00">new</text>
<text text-anchor="start" x="313.749" y="-37.9681" font-family="Times,serif" font-size="14.00">update</text>
<polyline fill="none" stroke="black" points="305.749,-31.1681 504.467,-31.1681 "/>
<text text-anchor="start" x="313.749" y="-15.9681" font-family="Times,serif" font-size="14.00">account_update_params</text>
<text text-anchor="start" x="313.749" y="-1.9681" font-family="Times,serif" font-size="14.00">after_inactive_sign_up_path_for</text>
<text text-anchor="start" x="313.749" y="12.0319" font-family="Times,serif" font-size="14.00">after_sign_up_path_for</text>
<text text-anchor="start" x="313.749" y="26.0319" font-family="Times,serif" font-size="14.00">after_update_path_for</text>
<text text-anchor="start" x="313.749" y="40.0319" font-family="Times,serif" font-size="14.00">authenticate_scope!</text>
<text text-anchor="start" x="313.749" y="54.0319" font-family="Times,serif" font-size="14.00">build_resource</text>
<text text-anchor="start" x="313.749" y="68.0319" font-family="Times,serif" font-size="14.00">sign_up</text>
<text text-anchor="start" x="313.749" y="82.0319" font-family="Times,serif" font-size="14.00">sign_up_params</text>
<text text-anchor="start" x="313.749" y="96.0319" font-family="Times,serif" font-size="14.00">update_needs_confirmation?</text>
<text text-anchor="start" x="313.749" y="110.032" font-family="Times,serif" font-size="14.00">update_resource</text>
<polyline fill="none" stroke="black" points="305.749,116.832 504.467,116.832 "/>
<text text-anchor="start" x="313.749" y="132.032" font-family="Times,serif" font-size="14.00">_layout</text>
</g>
<!-- Devise::SessionsController -->
<g id="node11" class="node"><title>Devise::SessionsController</title>
<path fill="none" stroke="black" d="M-99.6236,433.066C-99.6236,433.066 44.811,433.066 44.811,433.066 50.811,433.066 56.811,427.066 56.811,421.066 56.811,421.066 56.811,259.066 56.811,259.066 56.811,253.066 50.811,247.066 44.811,247.066 44.811,247.066 -99.6236,247.066 -99.6236,247.066 -105.624,247.066 -111.624,253.066 -111.624,259.066 -111.624,259.066 -111.624,421.066 -111.624,421.066 -111.624,427.066 -105.624,433.066 -99.6236,433.066"/>
<text text-anchor="middle" x="-27.4063" y="262.266" font-family="Times,serif" font-size="14.00">Devise::SessionsController</text>
<polyline fill="none" stroke="black" points="-111.624,269.066 56.811,269.066 "/>
<text text-anchor="start" x="-103.624" y="284.266" font-family="Times,serif" font-size="14.00">create</text>
<text text-anchor="start" x="-103.624" y="298.266" font-family="Times,serif" font-size="14.00">destroy</text>
<text text-anchor="start" x="-103.624" y="312.266" font-family="Times,serif" font-size="14.00">new</text>
<polyline fill="none" stroke="black" points="-111.624,319.066 56.811,319.066 "/>
<text text-anchor="start" x="-103.624" y="334.266" font-family="Times,serif" font-size="14.00">auth_options</text>
<text text-anchor="start" x="-103.624" y="348.266" font-family="Times,serif" font-size="14.00">serialize_options</text>
<text text-anchor="start" x="-103.624" y="362.266" font-family="Times,serif" font-size="14.00">sign_in_params</text>
<polyline fill="none" stroke="black" points="-111.624,369.066 56.811,369.066 "/>
<text text-anchor="start" x="-103.624" y="384.266" font-family="Times,serif" font-size="14.00">_layout</text>
<text text-anchor="start" x="-103.624" y="398.266" font-family="Times,serif" font-size="14.00">all_signed_out?</text>
<text text-anchor="start" x="-103.624" y="412.266" font-family="Times,serif" font-size="14.00">respond_to_on_destroy</text>
<text text-anchor="start" x="-103.624" y="426.266" font-family="Times,serif" font-size="14.00">verify_signed_out_user</text>
</g>
<!-- Devise::UnlocksController -->
<g id="node12" class="node"><title>Devise::UnlocksController</title>
<path fill="none" stroke="black" d="M238.801,399.579C238.801,399.579 478.857,399.579 478.857,399.579 484.857,399.579 490.857,393.579 490.857,387.579 490.857,387.579 490.857,281.579 490.857,281.579 490.857,275.579 484.857,269.579 478.857,269.579 478.857,269.579 238.801,269.579 238.801,269.579 232.801,269.579 226.801,275.579 226.801,281.579 226.801,281.579 226.801,387.579 226.801,387.579 226.801,393.579 232.801,399.579 238.801,399.579"/>
<text text-anchor="middle" x="358.829" y="284.779" font-family="Times,serif" font-size="14.00">Devise::UnlocksController</text>
<polyline fill="none" stroke="black" points="226.801,291.579 490.857,291.579 "/>
<text text-anchor="start" x="234.801" y="306.779" font-family="Times,serif" font-size="14.00">create</text>
<text text-anchor="start" x="234.801" y="320.779" font-family="Times,serif" font-size="14.00">new</text>
<text text-anchor="start" x="234.801" y="334.779" font-family="Times,serif" font-size="14.00">show</text>
<polyline fill="none" stroke="black" points="226.801,341.579 490.857,341.579 "/>
<text text-anchor="start" x="234.801" y="356.779" font-family="Times,serif" font-size="14.00">after_sending_unlock_instructions_path_for</text>
<text text-anchor="start" x="234.801" y="370.779" font-family="Times,serif" font-size="14.00">after_unlock_path_for</text>
<polyline fill="none" stroke="black" points="226.801,377.579 490.857,377.579 "/>
<text text-anchor="start" x="234.801" y="392.779" font-family="Times,serif" font-size="14.00">_layout</text>
</g>
<!-- DeviseController&#45;&gt;Devise::ConfirmationsController -->
<g id="edge4" class="edge"><title>DeviseController&#45;&gt;Devise::ConfirmationsController</title>
<path fill="none" stroke="black" d="M196.677,-75.8488C246.049,-141.547 306.67,-222.213 348.25,-277.541"/>
</g>
<!-- DeviseController&#45;&gt;Devise::OmniauthCallbacksController -->
<g id="edge5" class="edge"><title>DeviseController&#45;&gt;Devise::OmniauthCallbacksController</title>
<path fill="none" stroke="black" d="M110.247,-126.89C109.678,-170.404 109.095,-214.934 108.64,-249.713"/>
</g>
<!-- DeviseController&#45;&gt;Devise::PasswordsController -->
<g id="edge6" class="edge"><title>DeviseController&#45;&gt;Devise::PasswordsController</title>
<path fill="none" stroke="black" d="M28.1083,85.2106C-47.981,129.354 -161.673,195.312 -252.981,248.284"/>
</g>
<!-- DeviseController&#45;&gt;Devise::RegistrationsController -->
<g id="edge7" class="edge"><title>DeviseController&#45;&gt;Devise::RegistrationsController</title>
<path fill="none" stroke="black" d="M196.658,24.951C230.691,20.3601 270.222,15.0274 305.653,10.248"/>
</g>
<!-- DeviseController&#45;&gt;Devise::SessionsController -->
<g id="edge8" class="edge"><title>DeviseController&#45;&gt;Devise::SessionsController</title>
<path fill="none" stroke="black" d="M37.1683,199.751C29.7367,215.899 22.3858,231.872 15.4542,246.934"/>
</g>
<!-- DeviseController&#45;&gt;Devise::UnlocksController -->
<g id="edge9" class="edge"><title>DeviseController&#45;&gt;Devise::UnlocksController</title>
<path fill="none" stroke="black" d="M196.85,138.546C232.66,181.885 273.332,231.108 304.962,269.388"/>
</g>
</g>
</svg>
