<?xml version="1.0" encoding="UTF-8" standalone="no"?>
<!DOCTYPE svg PUBLIC "-//W3C//DTD SVG 1.1//EN"
 "http://www.w3.org/Graphics/SVG/1.1/DTD/svg11.dtd">
<!-- Generated by graphviz version 2.38.0 (20140413.2041)
 -->
<!-- Title: models_diagram Pages: 1 -->
<svg width="510pt" height="330pt"
 viewBox="0.00 0.00 509.73 330.00" xmlns="http://www.w3.org/2000/svg" xmlns:xlink="http://www.w3.org/1999/xlink">
<g id="graph0" class="graph" transform="scale(1 1) rotate(0) translate(4 326)">
<title>models_diagram</title>
<polygon fill="white" stroke="none" points="-4,4 -4,-326 505.728,-326 505.728,4 -4,4"/>
<!-- _diagram_info -->
<g id="node1" class="node"><title>_diagram_info</title>
<text text-anchor="start" x="8" y="-307.6" font-family="Times,serif" font-size="13.00">Models diagram</text>
<text text-anchor="start" x="8" y="-294.6" font-family="Times,serif" font-size="13.00">Date: Apr 10 2015 &#45; 09:30</text>
<text text-anchor="start" x="8" y="-281.6" font-family="Times,serif" font-size="13.00">Migration version: 20150311010725</text>
<text text-anchor="start" x="8" y="-268.6" font-family="Times,serif" font-size="13.00">Generated by RailRoady 1.3.0</text>
<text text-anchor="start" x="8" y="-255.6" font-family="Times,serif" font-size="13.00">http://railroady.prestonlee.com</text>
</g>
<!-- Message -->
<g id="node2" class="node"><title>Message</title>
<path fill="none" stroke="black" d="M157.944,-56.5C157.944,-56.5 266.955,-56.5 266.955,-56.5 272.955,-56.5 278.955,-62.5 278.955,-68.5 278.955,-68.5 278.955,-144.5 278.955,-144.5 278.955,-150.5 272.955,-156.5 266.955,-156.5 266.955,-156.5 157.944,-156.5 157.944,-156.5 151.944,-156.5 145.944,-150.5 145.944,-144.5 145.944,-144.5 145.944,-68.5 145.944,-68.5 145.944,-62.5 151.944,-56.5 157.944,-56.5"/>
<text text-anchor="middle" x="212.45" y="-141.3" font-family="Times,serif" font-size="14.00">Message</text>
<polyline fill="none" stroke="black" points="145.944,-134.5 278.955,-134.5 "/>
<text text-anchor="start" x="153.944" y="-119.3" font-family="Times,serif" font-size="14.00">id :integer</text>
<text text-anchor="start" x="153.944" y="-105.3" font-family="Times,serif" font-size="14.00">body :text</text>
<text text-anchor="start" x="153.944" y="-91.3" font-family="Times,serif" font-size="14.00">user_id :integer</text>
<text text-anchor="start" x="153.944" y="-77.3" font-family="Times,serif" font-size="14.00">created_at :datetime</text>
<text text-anchor="start" x="153.944" y="-63.3" font-family="Times,serif" font-size="14.00">updated_at :datetime</text>
</g>
<!-- User -->
<g id="node3" class="node"><title>User</title>
<path fill="none" stroke="black" d="M309.172,-0.5C309.172,-0.5 489.728,-0.5 489.728,-0.5 495.728,-0.5 501.728,-6.5 501.728,-12.5 501.728,-12.5 501.728,-200.5 501.728,-200.5 501.728,-206.5 495.728,-212.5 489.728,-212.5 489.728,-212.5 309.172,-212.5 309.172,-212.5 303.172,-212.5 297.172,-206.5 297.172,-200.5 297.172,-200.5 297.172,-12.5 297.172,-12.5 297.172,-6.5 303.172,-0.5 309.172,-0.5"/>
<text text-anchor="middle" x="399.45" y="-197.3" font-family="Times,serif" font-size="14.00">User</text>
<polyline fill="none" stroke="black" points="297.172,-190.5 501.728,-190.5 "/>
<text text-anchor="start" x="305.172" y="-175.3" font-family="Times,serif" font-size="14.00">id :integer</text>
<text text-anchor="start" x="305.172" y="-161.3" font-family="Times,serif" font-size="14.00">username :string</text>
<text text-anchor="start" x="305.172" y="-147.3" font-family="Times,serif" font-size="14.00">is_online :boolean</text>
<text text-anchor="start" x="305.172" y="-133.3" font-family="Times,serif" font-size="14.00">is_available :boolean</text>
<text text-anchor="start" x="305.172" y="-119.3" font-family="Times,serif" font-size="14.00">email :string</text>
<text text-anchor="start" x="305.172" y="-105.3" font-family="Times,serif" font-size="14.00">encrypted_password :string</text>
<text text-anchor="start" x="305.172" y="-91.3" font-family="Times,serif" font-size="14.00">reset_password_token :string</text>
<text text-anchor="start" x="305.172" y="-77.3" font-family="Times,serif" font-size="14.00">reset_password_sent_at :datetime</text>
<text text-anchor="start" x="305.172" y="-63.3" font-family="Times,serif" font-size="14.00">failed_attempts :integer</text>
<text text-anchor="start" x="305.172" y="-49.3" font-family="Times,serif" font-size="14.00">unlock_token :string</text>
<text text-anchor="start" x="305.172" y="-35.3" font-family="Times,serif" font-size="14.00">locked_at :datetime</text>
<text text-anchor="start" x="305.172" y="-21.3" font-family="Times,serif" font-size="14.00">created_at :datetime</text>
<text text-anchor="start" x="305.172" y="-7.3" font-family="Times,serif" font-size="14.00">updated_at :datetime</text>
</g>
<!-- ActiveRecord::Base -->
<g id="node4" class="node"><title>ActiveRecord::Base</title>
<ellipse fill="none" stroke="black" cx="306.45" cy="-285.5" rx="81.1422" ry="18"/>
<text text-anchor="middle" x="306.45" y="-281.3" font-family="Times,serif" font-size="14.00">ActiveRecord::Base</text>
</g>
<!-- ActiveRecord::Base&#45;&gt;Message -->
<g id="edge1" class="edge"><title>ActiveRecord::Base&#45;&gt;Message</title>
<path fill="none" stroke="black" d="M297.437,-267.528C284.019,-242.263 258.263,-193.765 238.607,-156.753"/>
</g>
<!-- ActiveRecord::Base&#45;&gt;User -->
<g id="edge2" class="edge"><title>ActiveRecord::Base&#45;&gt;User</title>
<path fill="none" stroke="black" d="M315.367,-267.528C322.414,-254.117 332.9,-234.159 344.097,-212.848"/>
</g>
</g>
</svg>
